<?xml version="1.0" encoding="iso-8859-1"?>
<!-- Generator: Adobe Illustrator 19.0.0, SVG Export Plug-In . SVG Version: 6.00 Build 0)  -->
<svg version="1.1" id="Layer_1" xmlns="http://www.w3.org/2000/svg" xmlns:xlink="http://www.w3.org/1999/xlink" x="0px" y="0px"
	 viewBox="0 0 448.001 448.001" style="enable-background:new 0 0 448.001 448.001;" xml:space="preserve">
<g transform="translate(0 -1020.36)" shape-rendering="auto" image-rendering="auto" color-rendering="auto" color-interpolation="sRGB">
	<path style="fill:#29A3EC;" d="M15.949,1324.326h128.031v128.031H15.949V1324.326z"/>
	<path style="fill:#3CDEF6;" d="M27.965,1336.342h104v104h-104C27.965,1440.342,27.965,1336.342,27.965,1336.342z"/>
	<path style="fill:#29A3EC;" d="M15.949,1180.349h128.031v128.031H15.949V1180.349z"/>
	<path style="fill:#3CDEF6;" d="M27.965,1192.367h104v104h-104C27.965,1296.367,27.965,1192.367,27.965,1192.367z"/>
	<path style="fill:#29A3EC;" d="M15.949,1036.369h128.031V1164.4H15.949V1036.369L15.949,1036.369z"/>
	<path style="fill:#3CDEF6;" d="M27.965,1048.385h104v104h-104C27.965,1152.385,27.965,1048.385,27.965,1048.385z"/>
	<path style="fill:#29A3EC;" d="M159.985,1036.369h128.031V1164.4H159.985L159.985,1036.369L159.985,1036.369z"/>
	<path style="fill:#3CDEF6;" d="M172.001,1048.385h104v104h-104V1048.385z"/>
	<path style="fill:#FFFFFF;" d="M222.997,1068.441c-4.07,0.469-7.129,3.936-7.087,8.031v47.836c0.002,4.436,3.6,8.029,8.035,8.027
		c4.433-0.002,8.025-3.594,8.028-8.027v-47.836c0.05-4.418-3.492-8.041-7.91-8.09
		C223.707,1068.379,223.351,1068.398,222.997,1068.441L222.997,1068.441z"/>
	<g>
		<path style="fill:#5A3392;" d="M7.209,1020.371c-4.117,0.411-7.24,3.894-7.205,8.03v143.978c-0.017,4.396,3.517,7.982,7.913,8.031
			h144.095c4.396-0.049,7.93-3.635,7.913-8.031v-143.978c0.016-4.396-3.517-7.982-7.913-8.03H7.918
			C7.682,1020.36,7.445,1020.36,7.209,1020.371L7.209,1020.371z M15.95,1036.433h128.031v127.914H15.95V1036.433z"/>
		<path style="fill:#5A3392;" d="M151.186,1020.371c-4.117,0.411-7.24,3.894-7.205,8.03v143.978
			c-0.017,4.418,3.552,8.014,7.97,8.031c0.02,0,0.041,0,0.061,0h143.976c4.419,0.018,8.014-3.551,8.031-7.971
			c0-0.02,0-0.041,0-0.061v-143.978c0.016-4.419-3.553-8.014-7.971-8.03c-0.02,0-0.04,0-0.06,0H152.013
			C151.737,1020.356,151.461,1020.356,151.186,1020.371L151.186,1020.371z M159.926,1036.433h128.031v127.914H159.926
			L159.926,1036.433L159.926,1036.433z"/>
		<path style="fill:#5A3392;" d="M295.162,1020.371c-4.117,0.411-7.241,3.894-7.205,8.03v143.978
			c-0.017,4.418,3.552,8.014,7.97,8.031c0.02,0,0.041,0,0.061,0h143.976c4.419,0.018,8.015-3.551,8.032-7.971
			c0-0.02,0-0.041,0-0.061v-143.978c0.016-4.419-3.553-8.014-7.971-8.03c-0.02,0-0.04,0-0.06,0H295.989
			C295.714,1020.356,295.438,1020.356,295.162,1020.371L295.162,1020.371z"/>
	</g>
	<path style="fill:#EE746C;" d="M304.02,1036.374h127.913v128.032H304.02V1036.374z"/>
	<path style="fill:#FB9761;" d="M315.977,1048.342h104v104.096h-104L315.977,1048.342L315.977,1048.342z"/>
	<g>
		<path style="fill:#5A3392;" d="M7.918,1164.348c-4.396,0.049-7.93,3.635-7.913,8.031v143.977
			c-0.017,4.396,3.517,7.982,7.913,8.031h144.095c4.396-0.049,7.93-3.635,7.913-8.031v-143.977c0.017-4.396-3.517-7.982-7.913-8.031
			C152.013,1164.348,7.918,1164.348,7.918,1164.348z M15.95,1180.41h128.031v127.914H15.95
			C15.95,1308.324,15.95,1180.41,15.95,1180.41z"/>
		<path style="fill:#5A3392;" d="M152.013,1164.348c-4.419-0.018-8.015,3.551-8.032,7.971c0,0.02,0,0.041,0,0.061v143.977
			c-0.017,4.418,3.552,8.014,7.97,8.031c0.02,0,0.041,0,0.061,0h143.976c4.419,0.018,8.014-3.551,8.031-7.971
			c0-0.02,0-0.041,0-0.061v-143.977c0.017-4.418-3.552-8.014-7.97-8.031c-0.02,0-0.041,0-0.061,0H152.013z M159.926,1180.41h128.031
			v127.914H159.926L159.926,1180.41L159.926,1180.41z"/>
		<path style="fill:#5A3392;" d="M295.989,1164.348c-4.419-0.018-8.015,3.551-8.032,7.971c0,0.02,0,0.041,0,0.061v143.977
			c-0.017,4.418,3.552,8.014,7.97,8.031c0.02,0,0.041,0,0.061,0h143.976c4.419,0.018,8.015-3.551,8.032-7.971
			c0-0.02,0-0.041,0-0.061v-143.977c0.017-4.418-3.552-8.014-7.97-8.031c-0.02,0-0.041,0-0.061,0H295.989z M304.02,1180.41h127.913
			v127.914H304.02L304.02,1180.41L304.02,1180.41z"/>
		<path style="fill:#5A3392;" d="M7.918,1308.322c-4.396,0.049-7.93,3.635-7.913,8.031v143.977
			c-0.017,4.396,3.517,7.982,7.913,8.031h144.095c4.396-0.049,7.93-3.635,7.913-8.031v-143.977c0.017-4.396-3.517-7.982-7.913-8.031
			C152.013,1308.322,7.918,1308.322,7.918,1308.322z M15.95,1324.385h128.031v128.031H15.95
			C15.95,1452.416,15.95,1324.385,15.95,1324.385z"/>
		<path style="fill:#5A3392;" d="M152.013,1308.322c-4.419-0.018-8.015,3.551-8.032,7.971c0,0.02,0,0.041,0,0.061v143.977
			c-0.017,4.418,3.552,8.014,7.97,8.031c0.02,0,0.041,0,0.061,0h143.976c4.419,0.018,8.014-3.551,8.031-7.971
			c0-0.02,0-0.041,0-0.061v-143.977c0.017-4.418-3.552-8.014-7.97-8.031c-0.02,0-0.041,0-0.061,0H152.013z M159.926,1324.385
			h128.031v128.031H159.926L159.926,1324.385L159.926,1324.385z"/>
		<path style="fill:#5A3392;" d="M295.989,1308.322c-4.419-0.018-8.015,3.551-8.032,7.971c0,0.02,0,0.041,0,0.061v143.977
			c-0.017,4.418,3.552,8.014,7.97,8.031c0.02,0,0.041,0,0.061,0h143.976c4.419,0.018,8.015-3.551,8.032-7.971
			c0-0.02,0-0.041,0-0.061v-143.977c0.017-4.418-3.552-8.014-7.97-8.031c-0.02,0-0.041,0-0.061,0H295.989z M304.02,1324.385h127.913
			v128.031H304.02L304.02,1324.385L304.02,1324.385z"/>
	</g>
	<path style="fill:#EE746C;" d="M304.02,1324.326h127.913v128.031H304.02V1324.326z"/>
	<path style="fill:#FB9761;" d="M315.977,1336.295h104v104.096h-104L315.977,1336.295L315.977,1336.295z"/>
	<g>
		<g>
			<path style="fill:#FFFFFF;" d="M343.115,1356.394c-4.394,0.467-7.578,4.406-7.112,8.801c0.198,1.861,1.043,3.596,2.388,4.9
				l47.835,47.836c3.156,3.105,8.232,3.066,11.338-0.09c3.072-3.119,3.072-8.127,0-11.248l-47.834-47.836
				c-1.722-1.766-4.163-2.639-6.614-2.365L343.115,1356.394z"/>
			<path style="fill:#FFFFFF;" d="M390.949,1356.394c-1.797,0.23-3.463,1.064-4.725,2.365l-47.835,47.836
				c-3.131,3.131-3.132,8.207-0.001,11.34c3.131,3.131,8.208,3.131,11.339,0l0,0l47.835-47.836
				c3.188-3.059,3.293-8.125,0.233-11.313c-1.77-1.844-4.314-2.732-6.847-2.389L390.949,1356.394z"/>
			<path style="fill:#FFFFFF;" d="M55.28,1068.441c-4.387,0.527-7.516,4.512-6.989,8.898c0.478,3.973,3.815,6.98,7.815,7.045h31.89
				l-26.339,35.08c-2.675,3.521-1.987,8.547,1.535,11.221s8.546,1.986,11.221-1.535l35.906-47.953
				c2.626-3.553,1.875-8.563-1.679-11.189c-1.361-1.006-3.006-1.555-4.699-1.566H56.107
				C55.832,1068.428,55.556,1068.428,55.28,1068.441z"/>
		</g>
		<path style="fill:#FFFFFF;" d="M79.965,1348.361c-13.16,0.002-23.976,10.818-23.976,23.979c0,13.16,10.816,24.094,23.976,24.094
			c13.16,0,23.977-10.934,23.976-24.094C103.942,1359.18,93.125,1348.361,79.965,1348.361z M79.965,1364.426
			c4.513,0,8.031,3.398,8.032,7.914c0,4.51-3.518,8.031-8.032,8.031c-4.513,0-8.032-3.518-8.031-8.031
			C71.934,1367.828,75.452,1364.426,79.965,1364.426z"/>
		<path style="fill:#FFFFFF;" d="M79.965,1380.369c-13.16,0-23.976,10.818-23.976,23.979c0,13.16,10.816,23.977,23.976,23.977
			c13.16,0,23.977-10.816,23.976-23.977C103.942,1391.187,93.125,1380.369,79.965,1380.369z M79.965,1396.433
			c4.513,0,8.031,3.398,8.032,7.914c0,4.51-3.518,8.031-8.032,8.031c-4.513,0-8.032-3.52-8.031-8.031
			C71.934,1399.836,75.452,1396.433,79.965,1396.433z"/>
	</g>
	<path style="fill:#EE746C;" d="M160.044,1180.349h127.913v128.031H160.044L160.044,1180.349L160.044,1180.349z"/>
	<path style="fill:#FB9761;" d="M172.001,1192.318h104v104.096h-104V1192.318z"/>
	<g>
		<g>
			<path style="fill:#FFFFFF;" d="M199.139,1212.418c-4.394,0.467-7.578,4.406-7.112,8.801c0.198,1.861,1.043,3.596,2.388,4.9
				l47.835,47.836c3.131,3.131,8.208,3.131,11.339,0c3.131-3.133,3.131-8.209-0.001-11.34l0,0l-47.835-47.836
				c-1.723-1.766-4.163-2.637-6.614-2.363L199.139,1212.418z"/>
			<path style="fill:#FFFFFF;" d="M246.973,1212.418c-1.797,0.23-3.463,1.064-4.725,2.365l-47.835,47.836
				c-3.155,3.107-3.195,8.184-0.088,11.338c3.107,3.156,8.183,3.195,11.338,0.088c0.03-0.029,0.059-0.059,0.089-0.088l47.835-47.834
				c3.189-3.059,3.296-8.123,0.238-11.313c-1.77-1.846-4.317-2.734-6.852-2.391V1212.418z"/>
			<path style="fill:#FFFFFF;" d="M343.942,1068.322c-4.419-0.033-8.027,3.523-8.06,7.941c-0.016,2.223,0.892,4.352,2.508,5.877
				l47.835,47.836c3.131,3.131,8.208,3.131,11.339,0c3.131-3.133,3.131-8.209-0.001-11.34l-47.835-47.836
				C348.22,1069.219,346.128,1068.322,343.942,1068.322L343.942,1068.322z"/>
			<path style="fill:#FFFFFF;" d="M390.949,1068.441c-1.797,0.23-3.463,1.064-4.725,2.365l-47.835,47.836
				c-3.156,3.105-3.196,8.182-0.089,11.338c3.106,3.156,8.183,3.195,11.338,0.09c0.03-0.029,0.06-0.061,0.09-0.09l47.835-47.836
				c3.188-3.059,3.293-8.125,0.233-11.313c-1.77-1.844-4.314-2.732-6.847-2.389L390.949,1068.441z"/>
			<path style="fill:#FFFFFF;" d="M91.658,1204.387c-2.424,0.076-4.683,1.248-6.142,3.186l-35.906,47.836
				c-2.626,3.553-1.875,8.563,1.679,11.189c1.361,1.006,3.006,1.555,4.699,1.566h27.874v8.15c-0.372,4.402,2.896,8.273,7.299,8.645
				c4.403,0.373,8.274-2.895,8.645-7.299c0.038-0.447,0.038-0.898,0-1.346v-8.15h4.016c4.403,0.377,8.277-2.887,8.654-7.289
				s-2.887-8.277-7.29-8.654c-0.454-0.039-0.91-0.039-1.364,0h-4.016v-39.803c0.018-4.418-3.55-8.016-7.969-8.033
				C91.779,1204.385,91.718,1204.385,91.658,1204.387z M83.863,1236.392v15.828l-11.811-0.16l11.811-15.709V1236.392z"/>
		</g>
		<path style="fill:#FFFFFF;" d="M303.961,1180.349h128.032v128.031H303.961V1180.349z"/>
	</g>
	<path style="fill:#EBFEFF;" d="M315.977,1192.318h104v104.096h-104V1192.318z"/>
	<path style="fill:#FFFFFF;" d="M159.985,1324.326h128.032v128.031H159.985L159.985,1324.326L159.985,1324.326z"/>
	<path style="fill:#EBFEFF;" d="M172.001,1336.295h104v104.096h-104V1336.295z"/>
</g>
</svg>
